<?xml version="1.0" standalone="no"?>
<!DOCTYPE svg PUBLIC "-//W3C//DTD SVG 20010904//EN"
 "http://www.w3.org/TR/2001/REC-SVG-20010904/DTD/svg10.dtd">
<svg version="1.0" xmlns="http://www.w3.org/2000/svg"
 width="2048.000000pt" height="2048.000000pt" viewBox="0 0 2048.000000 2048.000000"
 preserveAspectRatio="xMidYMid meet">
<metadata>
Created by potrace 1.14, written by Peter Selinger 2001-2017
</metadata>
<g transform="translate(0.000000,2048.000000) scale(0.100000,-0.100000)"
fill="#000000" stroke="none">
<path d="M10645 19450 c-2595 -152 -4733 -1172 -5814 -2774 -598 -886 -949
-2031 -990 -3224 -47 -1370 312 -2649 998 -3556 563 -747 1462 -1314 2756
-1740 935 -307 2100 -531 3105 -596 91 -6 203 -13 250 -17 l85 -6 -55 -13
c-30 -7 -161 -31 -290 -53 -1172 -199 -2360 -219 -3335 -55 -1084 181 -1959
561 -2644 1148 -135 115 -351 331 -466 464 l-88 103 -104 -103 c-526 -521
-999 -1170 -1243 -1707 -237 -522 -296 -928 -209 -1440 161 -955 837 -2023
1804 -2851 1233 -1055 2909 -1745 4740 -1950 628 -70 1387 -80 2005 -25 1496
133 2868 590 3995 1330 949 624 1757 1515 2244 2475 282 555 440 1064 513
1660 20 159 16 714 -5 910 -126 1141 -566 2358 -1327 3675 -170 294 -511 825
-603 939 l-23 29 -70 -40 c-461 -268 -1005 -425 -1644 -474 -196 -15 -691 -6
-890 15 -615 67 -1246 217 -1828 434 l-127 47 340 6 c1472 28 2968 395 3785
930 745 488 1304 1388 1464 2359 66 402 58 818 -23 1162 -253 1077 -1285 1984
-2850 2504 -659 219 -1359 355 -2171 420 -229 18 -1054 27 -1285 14z"/>
</g>
</svg>
